<?xml version="1.0" encoding="utf-8" standalone="no"?>
<!DOCTYPE svg PUBLIC "-//W3C//DTD SVG 1.1//EN"
  "http://www.w3.org/Graphics/SVG/1.1/DTD/svg11.dtd">
<svg xmlns:xlink="http://www.w3.org/1999/xlink" width="432pt" height="288pt" viewBox="0 0 432 288" xmlns="http://www.w3.org/2000/svg" version="1.1">
 <metadata>
  <rdf:RDF xmlns:dc="http://purl.org/dc/elements/1.1/" xmlns:cc="http://creativecommons.org/ns#" xmlns:rdf="http://www.w3.org/1999/02/22-rdf-syntax-ns#">
   <cc:Work>
    <dc:type rdf:resource="http://purl.org/dc/dcmitype/StillImage"/>
    <dc:date>2024-01-13T18:10:55.669863</dc:date>
    <dc:format>image/svg+xml</dc:format>
    <dc:creator>
     <cc:Agent>
      <dc:title>Matplotlib v3.5.1, https://matplotlib.org/</dc:title>
     </cc:Agent>
    </dc:creator>
   </cc:Work>
  </rdf:RDF>
 </metadata>
 <defs>
  <style type="text/css">*{stroke-linejoin: round; stroke-linecap: butt}</style>
 </defs>
 <g id="figure_1">
  <g id="patch_1">
   <path d="M 0 288 
L 432 288 
L 432 0 
L 0 0 
z
" style="fill: #ffffff"/>
  </g>
  <g id="axes_1">
   <g id="patch_2">
    <path d="M 32.56 260.12 
L 421.2 260.12 
L 421.2 10.8 
L 32.56 10.8 
z
" style="fill: #ffffff"/>
   </g>
   <g id="matplotlib.axis_1">
    <g id="xtick_1">
     <g id="line2d_1">
      <defs>
       <path id="mc2e55e2016" d="M 0 0 
L 0 3.5 
" style="stroke: #000000; stroke-width: 0.8"/>
      </defs>
      <g>
       <use xlink:href="#mc2e55e2016" x="49.638562" y="260.12" style="stroke: #000000; stroke-width: 0.8"/>
      </g>
     </g>
     <g id="text_1">
      <!-- M -->
      <g transform="translate(45.3245 274.718437)scale(0.1 -0.1)">
       <defs>
        <path id="DejaVuSans-4d" d="M 628 4666 
L 1569 4666 
L 2759 1491 
L 3956 4666 
L 4897 4666 
L 4897 0 
L 4281 0 
L 4281 4097 
L 3078 897 
L 2444 897 
L 1241 4097 
L 1241 0 
L 628 0 
L 628 4666 
z
" transform="scale(0.015625)"/>
       </defs>
       <use xlink:href="#DejaVuSans-4d"/>
      </g>
     </g>
    </g>
    <g id="xtick_2">
     <g id="line2d_2">
      <g>
       <use xlink:href="#mc2e55e2016" x="167.016998" y="260.12" style="stroke: #000000; stroke-width: 0.8"/>
      </g>
     </g>
     <g id="text_2">
      <!-- Gamma -->
      <g transform="translate(147.274029 274.718437)scale(0.1 -0.1)">
       <defs>
        <path id="DejaVuSans-47" d="M 3809 666 
L 3809 1919 
L 2778 1919 
L 2778 2438 
L 4434 2438 
L 4434 434 
Q 4069 175 3628 42 
Q 3188 -91 2688 -91 
Q 1594 -91 976 548 
Q 359 1188 359 2328 
Q 359 3472 976 4111 
Q 1594 4750 2688 4750 
Q 3144 4750 3555 4637 
Q 3966 4525 4313 4306 
L 4313 3634 
Q 3963 3931 3569 4081 
Q 3175 4231 2741 4231 
Q 1884 4231 1454 3753 
Q 1025 3275 1025 2328 
Q 1025 1384 1454 906 
Q 1884 428 2741 428 
Q 3075 428 3337 486 
Q 3600 544 3809 666 
z
" transform="scale(0.015625)"/>
        <path id="DejaVuSans-61" d="M 2194 1759 
Q 1497 1759 1228 1600 
Q 959 1441 959 1056 
Q 959 750 1161 570 
Q 1363 391 1709 391 
Q 2188 391 2477 730 
Q 2766 1069 2766 1631 
L 2766 1759 
L 2194 1759 
z
M 3341 1997 
L 3341 0 
L 2766 0 
L 2766 531 
Q 2569 213 2275 61 
Q 1981 -91 1556 -91 
Q 1019 -91 701 211 
Q 384 513 384 1019 
Q 384 1609 779 1909 
Q 1175 2209 1959 2209 
L 2766 2209 
L 2766 2266 
Q 2766 2663 2505 2880 
Q 2244 3097 1772 3097 
Q 1472 3097 1187 3025 
Q 903 2953 641 2809 
L 641 3341 
Q 956 3463 1253 3523 
Q 1550 3584 1831 3584 
Q 2591 3584 2966 3190 
Q 3341 2797 3341 1997 
z
" transform="scale(0.015625)"/>
        <path id="DejaVuSans-6d" d="M 3328 2828 
Q 3544 3216 3844 3400 
Q 4144 3584 4550 3584 
Q 5097 3584 5394 3201 
Q 5691 2819 5691 2113 
L 5691 0 
L 5113 0 
L 5113 2094 
Q 5113 2597 4934 2840 
Q 4756 3084 4391 3084 
Q 3944 3084 3684 2787 
Q 3425 2491 3425 1978 
L 3425 0 
L 2847 0 
L 2847 2094 
Q 2847 2600 2669 2842 
Q 2491 3084 2119 3084 
Q 1678 3084 1418 2786 
Q 1159 2488 1159 1978 
L 1159 0 
L 581 0 
L 581 3500 
L 1159 3500 
L 1159 2956 
Q 1356 3278 1631 3431 
Q 1906 3584 2284 3584 
Q 2666 3584 2933 3390 
Q 3200 3197 3328 2828 
z
" transform="scale(0.015625)"/>
       </defs>
       <use xlink:href="#DejaVuSans-47"/>
       <use xlink:href="#DejaVuSans-61" x="77.490234"/>
       <use xlink:href="#DejaVuSans-6d" x="138.769531"/>
       <use xlink:href="#DejaVuSans-6d" x="236.181641"/>
       <use xlink:href="#DejaVuSans-61" x="333.59375"/>
      </g>
     </g>
    </g>
    <g id="xtick_3">
     <g id="line2d_3">
      <g>
       <use xlink:href="#mc2e55e2016" x="284.395433" y="260.12" style="stroke: #000000; stroke-width: 0.8"/>
      </g>
     </g>
     <g id="text_3">
      <!-- X -->
      <g transform="translate(280.970433 274.718437)scale(0.1 -0.1)">
       <defs>
        <path id="DejaVuSans-58" d="M 403 4666 
L 1081 4666 
L 2241 2931 
L 3406 4666 
L 4084 4666 
L 2584 2425 
L 4184 0 
L 3506 0 
L 2194 1984 
L 872 0 
L 191 0 
L 1856 2491 
L 403 4666 
z
" transform="scale(0.015625)"/>
       </defs>
       <use xlink:href="#DejaVuSans-58"/>
      </g>
     </g>
    </g>
    <g id="xtick_4">
     <g id="line2d_4">
      <g>
       <use xlink:href="#mc2e55e2016" x="401.773869" y="260.12" style="stroke: #000000; stroke-width: 0.8"/>
      </g>
     </g>
     <g id="text_4">
      <!-- M -->
      <g transform="translate(397.459806 274.718437)scale(0.1 -0.1)">
       <use xlink:href="#DejaVuSans-4d"/>
      </g>
     </g>
    </g>
   </g>
   <g id="matplotlib.axis_2">
    <g id="ytick_1">
     <g id="line2d_5">
      <defs>
       <path id="mc2a7d998ee" d="M 0 0 
L -3.5 0 
" style="stroke: #000000; stroke-width: 0.8"/>
      </defs>
      <g>
       <use xlink:href="#mc2a7d998ee" x="32.56" y="231.352308" style="stroke: #000000; stroke-width: 0.8"/>
      </g>
     </g>
     <g id="text_5">
      <!-- −4 -->
      <g transform="translate(10.817813 235.151526)scale(0.1 -0.1)">
       <defs>
        <path id="DejaVuSans-2212" d="M 678 2272 
L 4684 2272 
L 4684 1741 
L 678 1741 
L 678 2272 
z
" transform="scale(0.015625)"/>
        <path id="DejaVuSans-34" d="M 2419 4116 
L 825 1625 
L 2419 1625 
L 2419 4116 
z
M 2253 4666 
L 3047 4666 
L 3047 1625 
L 3713 1625 
L 3713 1100 
L 3047 1100 
L 3047 0 
L 2419 0 
L 2419 1100 
L 313 1100 
L 313 1709 
L 2253 4666 
z
" transform="scale(0.015625)"/>
       </defs>
       <use xlink:href="#DejaVuSans-2212"/>
       <use xlink:href="#DejaVuSans-34" x="83.789062"/>
      </g>
     </g>
    </g>
    <g id="ytick_2">
     <g id="line2d_6">
      <g>
       <use xlink:href="#mc2a7d998ee" x="32.56" y="183.406154" style="stroke: #000000; stroke-width: 0.8"/>
      </g>
     </g>
     <g id="text_6">
      <!-- −2 -->
      <g transform="translate(10.817813 187.205373)scale(0.1 -0.1)">
       <defs>
        <path id="DejaVuSans-32" d="M 1228 531 
L 3431 531 
L 3431 0 
L 469 0 
L 469 531 
Q 828 903 1448 1529 
Q 2069 2156 2228 2338 
Q 2531 2678 2651 2914 
Q 2772 3150 2772 3378 
Q 2772 3750 2511 3984 
Q 2250 4219 1831 4219 
Q 1534 4219 1204 4116 
Q 875 4013 500 3803 
L 500 4441 
Q 881 4594 1212 4672 
Q 1544 4750 1819 4750 
Q 2544 4750 2975 4387 
Q 3406 4025 3406 3419 
Q 3406 3131 3298 2873 
Q 3191 2616 2906 2266 
Q 2828 2175 2409 1742 
Q 1991 1309 1228 531 
z
" transform="scale(0.015625)"/>
       </defs>
       <use xlink:href="#DejaVuSans-2212"/>
       <use xlink:href="#DejaVuSans-32" x="83.789062"/>
      </g>
     </g>
    </g>
    <g id="ytick_3">
     <g id="line2d_7">
      <g>
       <use xlink:href="#mc2a7d998ee" x="32.56" y="135.46" style="stroke: #000000; stroke-width: 0.8"/>
      </g>
     </g>
     <g id="text_7">
      <!-- 0 -->
      <g transform="translate(19.1975 139.259219)scale(0.1 -0.1)">
       <defs>
        <path id="DejaVuSans-30" d="M 2034 4250 
Q 1547 4250 1301 3770 
Q 1056 3291 1056 2328 
Q 1056 1369 1301 889 
Q 1547 409 2034 409 
Q 2525 409 2770 889 
Q 3016 1369 3016 2328 
Q 3016 3291 2770 3770 
Q 2525 4250 2034 4250 
z
M 2034 4750 
Q 2819 4750 3233 4129 
Q 3647 3509 3647 2328 
Q 3647 1150 3233 529 
Q 2819 -91 2034 -91 
Q 1250 -91 836 529 
Q 422 1150 422 2328 
Q 422 3509 836 4129 
Q 1250 4750 2034 4750 
z
" transform="scale(0.015625)"/>
       </defs>
       <use xlink:href="#DejaVuSans-30"/>
      </g>
     </g>
    </g>
    <g id="ytick_4">
     <g id="line2d_8">
      <g>
       <use xlink:href="#mc2a7d998ee" x="32.56" y="87.513846" style="stroke: #000000; stroke-width: 0.8"/>
      </g>
     </g>
     <g id="text_8">
      <!-- 2 -->
      <g transform="translate(19.1975 91.313065)scale(0.1 -0.1)">
       <use xlink:href="#DejaVuSans-32"/>
      </g>
     </g>
    </g>
    <g id="ytick_5">
     <g id="line2d_9">
      <g>
       <use xlink:href="#mc2a7d998ee" x="32.56" y="39.567692" style="stroke: #000000; stroke-width: 0.8"/>
      </g>
     </g>
     <g id="text_9">
      <!-- 4 -->
      <g transform="translate(19.1975 43.366911)scale(0.1 -0.1)">
       <use xlink:href="#DejaVuSans-34"/>
      </g>
     </g>
    </g>
   </g>
   <g id="line2d_10">
    <path d="M 50.225455 107.428733 
L 54.920592 107.542431 
L 59.615729 107.886326 
L 64.310867 108.468879 
L 68.419112 109.18552 
L 72.527357 110.109342 
L 76.635603 111.257997 
L 80.743848 112.653832 
L 84.265201 114.068047 
L 87.786554 115.706071 
L 91.307907 117.59457 
L 94.82926 119.766731 
L 97.763721 121.823633 
L 100.698182 124.137598 
L 103.632643 126.748202 
L 106.567104 129.707346 
L 108.914672 132.37198 
L 111.262241 135.352553 
L 113.60981 138.71448 
L 115.957378 142.549216 
L 117.718055 145.813493 
L 119.478732 149.497873 
L 121.239408 153.717365 
L 123.000085 158.643834 
L 124.173869 162.448965 
L 125.347653 166.807448 
L 126.521438 171.900208 
L 127.695222 178.010934 
L 128.869006 185.617796 
L 130.042791 195.61183 
L 130.629683 202.028131 
L 131.216575 209.921901 
L 131.803467 220.058422 
L 132.390359 233.92617 
L 132.977252 254.962278 
L 133.489758 289 
M 134.438668 289 
L 134.737928 146.05799 
L 139.433066 144.422696 
L 144.128203 143.020022 
L 148.82334 141.859373 
L 153.518478 140.948516 
L 157.626723 140.361249 
L 161.734968 139.972908 
L 165.843214 139.785475 
L 171.125243 139.792693 
L 176.994165 139.998919 
L 182.863087 140.411662 
L 188.732008 141.031504 
L 194.60093 141.859322 
L 200.469852 142.896286 
L 206.338774 144.143868 
L 212.207696 145.603856 
L 215.142156 146.414149 
L 215.528701 289 
M 216.434167 289 
L 216.902833 264.429369 
L 217.489725 245.644391 
L 218.076617 232.529652 
L 218.66351 222.634791 
L 219.837294 208.319978 
L 221.011078 198.156409 
L 222.184863 190.37115 
L 223.358647 184.106833 
L 224.532431 178.890039 
L 225.706216 174.434454 
L 227.466892 168.790372 
L 229.227569 164.057715 
L 230.988245 159.994586 
L 232.748922 156.444101 
L 234.509598 153.299239 
L 236.857167 149.608807 
L 239.204736 146.37965 
L 241.552304 143.524038 
L 243.899873 140.979124 
L 246.834334 138.165374 
L 249.768795 135.698771 
L 252.703256 133.530901 
L 255.637717 131.62573 
L 258.572178 129.955921 
L 262.093531 128.23354 
L 265.614884 126.792329 
L 269.136237 125.611662 
L 272.65759 124.676204 
L 276.178943 123.974723 
L 279.700296 123.499296 
L 283.221649 123.244783 
L 287.329894 123.19213 
L 293.198816 123.042546 
L 299.067738 122.68399 
L 305.523552 122.062171 
L 312.566258 121.139638 
L 320.195856 119.899091 
L 328.999239 118.235351 
L 343.084651 115.308356 
L 357.756956 112.318134 
L 367.14723 110.634898 
L 374.776829 109.478514 
L 381.819535 108.616733 
L 388.862241 107.97744 
L 395.318055 107.601954 
L 401.773869 107.43671 
L 403.534545 107.428733 
L 403.534545 107.428733 
" clip-path="url(#p19acd5029a)" style="fill: none; stroke-dasharray: 5.55,2.4; stroke-dashoffset: 0; stroke: #000000; stroke-width: 1.5"/>
   </g>
   <g id="line2d_11">
    <path d="M 50.225455 154.625739 
L 54.920592 154.525104 
L 59.615729 154.223307 
L 64.310867 153.720837 
L 69.592896 152.917446 
L 74.874926 151.866582 
L 80.156956 150.578472 
L 86.025877 148.893777 
L 92.481691 146.795029 
L 105.393319 142.513773 
L 108.914672 141.650605 
L 111.262241 141.279043 
L 113.60981 141.160398 
L 115.370486 141.305961 
L 117.131163 141.729069 
L 118.304947 142.212771 
L 119.478732 142.90273 
L 120.652516 143.850736 
L 121.8263 145.125833 
L 123.000085 146.822311 
L 124.173869 149.072705 
L 125.347653 152.06994 
L 126.521438 156.107299 
L 127.695222 161.655954 
L 128.282114 165.23002 
L 128.869006 169.530141 
L 129.455899 174.775376 
L 130.042791 181.286689 
L 130.629683 189.556591 
L 131.216575 200.387071 
L 131.803467 215.191976 
L 132.390359 236.759459 
L 132.977252 271.620012 
L 133.125226 289 
M 134.458857 289 
L 134.737928 14.484231 
L 138.846173 16.653194 
L 142.954419 18.558123 
L 147.062664 20.188387 
L 150.584017 21.360194 
L 154.10537 22.318667 
L 157.626723 23.05986 
L 161.148076 23.580723 
L 164.669429 23.87911 
L 168.190782 23.956905 
L 172.88592 23.857309 
L 177.581057 23.558585 
L 182.276195 23.060922 
L 187.558224 22.263666 
L 192.840254 21.215714 
L 198.122283 19.917987 
L 203.404313 18.37168 
L 208.686342 16.578296 
L 213.968372 14.539693 
L 215.142156 14.053588 
L 215.49702 289 
M 216.883502 289 
L 216.902833 287.191152 
L 217.489725 255.148834 
L 218.076617 233.751228 
L 218.66351 218.300651 
L 219.250402 206.559413 
L 219.837294 197.309872 
L 221.011078 183.645194 
L 222.184863 174.043765 
L 223.358647 166.957739 
L 224.532431 161.548181 
L 225.706216 157.316822 
L 226.88 153.947203 
L 228.053784 151.227743 
L 229.227569 149.011105 
L 230.401353 147.191239 
L 231.575137 145.689692 
L 232.748922 144.447067 
L 234.509598 142.97104 
L 236.270275 141.860704 
L 238.030951 141.032795 
L 239.791628 140.425861 
L 242.139197 139.88172 
L 244.486765 139.567178 
L 247.421226 139.407671 
L 250.942579 139.451612 
L 255.637717 139.750577 
L 265.027992 140.648235 
L 273.831374 141.390283 
L 280.287188 141.712035 
L 286.743002 141.797395 
L 293.785708 141.929775 
L 300.828414 142.284632 
L 308.458013 142.905724 
L 316.087611 143.748039 
L 324.890994 144.949027 
L 335.455053 146.623066 
L 367.734123 151.91077 
L 376.537505 153.030852 
L 384.167104 153.787849 
L 391.796702 154.313718 
L 398.839408 154.575482 
L 403.534545 154.625739 
L 403.534545 154.625739 
" clip-path="url(#p19acd5029a)" style="fill: none; stroke: #ffd700; stroke-width: 1.5; stroke-linecap: square"/>
   </g>
   <g id="patch_3">
    <path d="M 32.56 260.12 
L 32.56 10.8 
" style="fill: none; stroke: #000000; stroke-width: 0.8; stroke-linejoin: miter; stroke-linecap: square"/>
   </g>
   <g id="patch_4">
    <path d="M 421.2 260.12 
L 421.2 10.8 
" style="fill: none; stroke: #000000; stroke-width: 0.8; stroke-linejoin: miter; stroke-linecap: square"/>
   </g>
   <g id="patch_5">
    <path d="M 32.56 260.12 
L 421.2 260.12 
" style="fill: none; stroke: #000000; stroke-width: 0.8; stroke-linejoin: miter; stroke-linecap: square"/>
   </g>
   <g id="patch_6">
    <path d="M 32.56 10.8 
L 421.2 10.8 
" style="fill: none; stroke: #000000; stroke-width: 0.8; stroke-linejoin: miter; stroke-linecap: square"/>
   </g>
  </g>
 </g>
 <defs>
  <clipPath id="p19acd5029a">
   <rect x="32.56" y="10.8" width="388.64" height="249.32"/>
  </clipPath>
 </defs>
</svg>
